<svg width="18" height="18" viewBox="0 0 18 18" fill="none" xmlns="http://www.w3.org/2000/svg">
  <g clip-path="url(#clip0_702_32826)">
    <path d="M2.33333 2.33333C2.33333 1.41667 3.08333 0.666667 4 0.666667C4.91667 0.666667 5.66667 1.41667 5.66667 2.33333C5.66667 3.25 4.91667 4 4 4C3.08333 4 2.33333 3.25 2.33333 2.33333ZM2.66667 6.66667H5.33333V17.3333H2.66667V6.66667ZM7.33333 6.66667H9.83333V8.1H9.88333C10.3333 7.4 11.1833 6.66667 12.4 6.66667C14.7667 6.66667 15.6667 8.16667 15.6667 10.7333V17.3333H13V11.2667C13 9.9 12.6667 9.08333 11.6667 9.08333C10.6667 9.08333 10.1667 9.83333 10.1667 11.2667V17.3333H7.33333V6.66667Z" fill="#757185"/>
  </g>
  <defs>
    <clipPath id="clip0_702_32826">
      <rect width="18" height="18" fill="white"/>
    </clipPath>
  </defs>
</svg>



